# xmcd CD database file
#
# Track frame offsets:
#	150
#	22233
#	45605
#	68755
#	83813
#	100455
#	116848
#	133665
#	152003
#	167735
#	197385
#	214233
#	238768
#
# Disc length: 3395 seconds
#
# Revision: 1
# Processed by: cddbd v1.5.2PL0 Copyright (c) Steve Scherf et al.
# Submitted via: CDex 1.51
#
DISCID=b60d410d
DTITLE=R. L. Burnside - Wish I Was In Heaven Sitting Down
DYEAR=1900
DGENRE=Blues
TTITLE0=Everything's Broken
TTITLE1=Hard Time Killing Floor
TTITLE2=Get Messed Up
TTITLE3=Miss Maybelle
TTITLE4=Wish I Was In Heaven Sitting Down
TTITLE5=Too Many Ups
TTITLE6=Nothing Man
TTITLE7=See What My Buddy Done
TTITLE8=My Eyes Keep Me In Trouble
TTITLE9=Bad Luck City
TTITLE10=Chain of Fools
TTITLE11=R. L.'s Story
TTITLE12=Good Thing
EXTD=
EXTT0=
EXTT1=
EXTT2=
EXTT3=
EXTT4=
EXTT5=
EXTT6=
EXTT7=
EXTT8=
EXTT9=
EXTT10=
EXTT11=
EXTT12=
PLAYORDER=
